<svg width="24" height="24" viewBox="0 0 24 24" fill="none" xmlns="http://www.w3.org/2000/svg">
<g clip-path="url(#clip0)">
<path d="M9.68598 11.1954C9.68598 11.1954 11.9569 11.0268 11.9569 8.36301C11.9569 5.69952 10.0988 4.40009 7.74497 4.40009H3.41254H3.28528H0V19.2843H3.28528H3.41254H7.74497C7.74497 19.2843 12.473 19.4338 12.473 14.8912C12.4732 14.8912 12.6794 11.1954 9.68598 11.1954ZM3.41254 7.04579H7.18757H7.74522C7.74522 7.04579 8.79815 7.04579 8.79815 8.59424C8.79815 10.1427 8.17862 10.3671 7.47667 10.3671H3.41254V7.04579ZM7.54531 16.6393H3.41254V12.6614H7.74497C7.74497 12.6614 9.31421 12.6413 9.31421 14.7056C9.31421 16.4269 8.16659 16.622 7.54531 16.6393Z" fill="#FEC901"/>
<path d="M21.7183 5.27692H15.5771V7.10995H21.7183V5.27692Z" fill="#FEC901"/>
<path d="M18.779 8.18744C13.0552 8.18744 13.0602 13.9057 13.0602 13.9057C13.0602 13.9057 12.6679 19.5957 18.7792 19.5957C18.7792 19.5957 23.8725 19.8868 23.8725 15.6373H21.2531C21.2531 15.6373 21.3405 17.2384 18.8667 17.2384C18.8667 17.2384 16.2475 17.4135 16.2475 14.648H23.9597C23.9597 14.648 24.8034 8.18744 18.779 8.18744ZM21.1073 12.6614H16.218C16.218 12.6614 16.5379 10.3672 18.8371 10.3672C21.1366 10.3669 21.1073 12.6614 21.1073 12.6614Z" fill="#FEC901"/>
</g>
<defs>
<clipPath id="clip0">
<rect width="24" height="24" fill="white"/>
</clipPath>
</defs>
</svg>
