<svg width="24" height="24" viewBox="0 0 24 24" fill="none" xmlns="http://www.w3.org/2000/svg">
<path d="M13.6724 12.3214C13.4234 11.6551 13.156 11.0077 12.8712 10.3838C11.0108 11.1471 9.04769 11.5387 7.0251 11.5387C4.98901 11.5387 3.01633 11.1449 1.14971 10.3742C1.06901 10.9145 1.02686 11.459 1.02686 12.0005C1.02686 15.1369 2.34899 18.075 4.67568 20.1602C6.50717 16.4369 9.73581 13.6235 13.6724 12.3214Z" fill="#FEC901"/>
<path d="M22.8212 13.2229C20.2935 12.4362 17.578 12.3605 15.0057 13.008C15.9626 15.8749 16.4885 18.8521 16.572 21.8797C19.9338 20.2915 22.3632 17.0644 22.8212 13.2229Z" fill="#FEC901"/>
<path d="M13.3653 9.03035C15.7769 7.84806 17.7857 6.04234 19.2191 3.76608C17.2123 2.00277 14.6691 1.02682 11.9998 1.02682C10.7143 1.02682 9.45725 1.25293 8.25171 1.69441C10.3129 3.88843 12.0293 6.3507 13.3653 9.03035Z" fill="#FEC901"/>
<path d="M19.9872 4.49011C18.459 6.84862 16.3455 8.72499 13.8223 9.96164L13.8261 9.96969L13.8218 9.9717C14.1221 10.6317 14.4054 11.3186 14.6669 12.0233C15.9301 11.6969 17.2277 11.5317 18.5307 11.5317C20.0394 11.5317 21.5295 11.7506 22.9704 12.1833C22.9722 12.1226 22.9732 12.0617 22.9732 12.0005C22.9732 9.17801 21.9176 6.53472 19.9872 4.49011Z" fill="#FEC901"/>
<path d="M14.0218 13.2815C10.259 14.5177 7.18504 17.2344 5.49036 20.8255C7.38957 22.2321 9.63148 22.9734 11.9995 22.9734C13.2033 22.9734 14.3998 22.7701 15.5613 22.369C15.5232 19.266 15.006 16.2131 14.0218 13.2815Z" fill="#FEC901"/>
<path d="M7.02513 10.5119C8.89652 10.5119 10.7148 10.1572 12.4378 9.45699C11.0921 6.76461 9.34781 4.29904 7.24503 2.11633C4.30292 3.53422 2.13469 6.19626 1.35132 9.34896C3.14898 10.1208 5.05574 10.5119 7.02513 10.5119Z" fill="#FEC901"/>
</svg>
