<svg width="24" height="24" viewBox="0 0 24 24" fill="none" xmlns="http://www.w3.org/2000/svg">
<path d="M24 14.5938V23.4667H18.856V15.188C18.856 13.1084 18.112 11.6891 16.2501 11.6891C14.8287 11.6891 13.9828 12.6456 13.6107 13.5708C13.475 13.9016 13.4401 14.362 13.4401 14.825V23.4667H8.29438C8.29438 23.4667 8.36368 9.44534 8.29438 7.99262H13.4396V10.186C13.4291 10.2024 13.4156 10.2201 13.4058 10.236H13.4396V10.186C14.1232 9.13314 15.344 7.62909 18.0766 7.62909C21.462 7.62903 24 9.84073 24 14.5938ZM2.91175 0.533325C1.15141 0.533325 0 1.68797 0 3.20637C0 4.69167 1.1181 5.88136 2.84345 5.88136H2.87782C4.67225 5.88136 5.78823 4.6919 5.78823 3.20637C5.75442 1.68797 4.67225 0.533325 2.91175 0.533325ZM0.30561 23.4667H5.44936V7.99262H0.30561V23.4667Z" fill="#FEC901"/>
</svg>
