<svg width="72" height="37" viewBox="0 0 72 37" fill="none" xmlns="http://www.w3.org/2000/svg">
<g clip-path="url(#clip0)">
<path d="M52.16 2.01002C53.0023 2.91507 53.6491 3.98396 54.06 5.15002C54.4863 6.32652 54.7029 7.56868 54.7 8.82002V8.61002C54.7013 7.35817 54.9213 6.11618 55.35 4.94002C55.9903 3.10421 57.2166 1.52998 58.84 0.460022L50.19 0.460022C50.9154 0.882805 51.5784 1.40447 52.16 2.01002Z" fill="#FEC901"/>
<path d="M1.42999 0.460022L7.94999 25.69L14.41 0.460022H1.42999Z" fill="#FEC901"/>
<path d="M55.6 27.35C56.2036 26.2703 56.9768 25.2945 57.89 24.46C58.8368 23.573 59.8799 22.7948 61 22.14C62.12 21.5 63.2 20.88 64.25 20.31C64.88 19.97 65.51 19.63 66.15 19.31C66.7575 19.0027 67.3278 18.6269 67.85 18.19C68.3232 17.7736 68.7134 17.2715 69 16.71C69.3205 16.0506 69.4749 15.3228 69.45 14.59V8.59004C69.4562 7.73538 69.2204 6.8964 68.77 6.17004C68.5017 5.78227 68.1429 5.46576 67.7247 5.24795C67.3065 5.03013 66.8415 4.91758 66.37 4.92004H64.55C64.0918 4.91725 63.6391 5.01944 63.2265 5.21879C62.814 5.41813 62.4525 5.70933 62.17 6.07004C61.6567 6.80812 61.3939 7.69142 61.42 8.59004V12.89H48V8.82004C48.0275 7.91663 47.7608 7.02872 47.24 6.29004C46.9564 5.93116 46.5946 5.64188 46.1821 5.44429C45.7696 5.24671 45.3174 5.14606 44.86 5.15004H43C42.5283 5.14672 42.063 5.2589 41.6447 5.47679C41.2263 5.69467 40.8677 6.01165 40.6 6.40004C40.1531 7.12745 39.9208 7.96635 39.93 8.82004V12.34C39.9038 13.0729 40.0584 13.801 40.38 14.46C40.6784 15.0277 41.0863 15.5307 41.58 15.94C42.1037 16.3825 42.6777 16.7617 43.29 17.07L45.19 18.07C46.19 18.65 47.32 19.26 48.43 19.91C49.5158 20.5461 50.5227 21.308 51.43 22.18C52.3388 23.04 53.1141 24.0309 53.73 25.12C54.3577 26.2759 54.6747 27.5749 54.65 28.89V31.14C54.636 29.8161 54.9632 28.5108 55.6 27.35Z" fill="#FEC901"/>
<path d="M40.77 35.83C41.33 36.53 42.1 36.5 43.25 36.5H44.48C45.68 36.5 46.63 36.38 47.18 35.65C47.7278 34.9065 48.016 34.0034 48 33.08V29.25C47.9345 28.6481 47.7463 28.0661 47.447 27.5397C47.1477 27.0134 46.7437 26.5541 46.26 26.19C44.8461 25.0646 43.3057 24.1082 41.67 23.34C40.67 22.83 39.67 22.28 38.67 21.71C37.6865 21.1594 36.776 20.4875 35.96 19.71C35.1438 18.9386 34.4672 18.0319 33.96 17.03C33.4324 15.9156 33.1754 14.6924 33.21 13.46V8.81C33.2107 7.63821 33.4102 6.47504 33.8 5.37H22.69V18.09H33.21V24.21H22.69V36.46H33.81V36.33C33.4292 35.2814 33.2297 34.1756 33.22 33.06V29.29H39.94V33.07C39.9021 34.0567 40.1941 35.0279 40.77 35.83Z" fill="#FEC901"/>
<path d="M0 19.52V36.47H5.77L0 19.52Z" fill="#FEC901"/>
<path d="M70.76 23.98C69.76 24.56 68.76 25.1 67.76 25.61C66.1173 26.3767 64.57 27.3332 63.15 28.46C62.6648 28.8241 62.2604 29.2849 61.9626 29.8134C61.6648 30.3419 61.48 30.9264 61.42 31.53V36.46H72V23.17C71.6 23.46 71.2 23.73 70.76 23.98Z" fill="#FEC901"/>
<path d="M15.84 19.57L10.12 36.47H15.84V19.57Z" fill="#FEC901"/>
</g>
<defs>
<clipPath id="clip0">
<rect y="0.460022" width="72" height="36.04" fill="white"/>
</clipPath>
</defs>
</svg>
