<svg width="24" height="24" viewBox="0 0 24 24" fill="none" xmlns="http://www.w3.org/2000/svg">
<g clip-path="url(#clip0)">
<path d="M24 4.55918C23.1167 4.95059 22.1689 5.21604 21.1731 5.33455C22.1899 4.72565 22.9682 3.75984 23.3371 2.61255C22.3833 3.17643 21.3305 3.58588 20.2087 3.80784C19.3104 2.84953 18.0326 2.25262 16.6154 2.25262C13.8964 2.25262 11.6918 4.45722 11.6918 7.17471C11.6918 7.56012 11.7353 7.93655 11.8193 8.29652C7.72807 8.09103 4.10026 6.13091 1.67222 3.15243C1.24779 3.87831 1.00634 4.72412 1.00634 5.62698C1.00634 7.33518 1.87618 8.8424 3.19595 9.72421C2.38908 9.69722 1.63022 9.47526 0.965866 9.10632V9.16781C0.965866 11.5524 2.66355 13.5425 4.91461 13.9954C4.50218 14.1064 4.06728 14.1679 3.61736 14.1679C3.29944 14.1679 2.99199 14.1364 2.69053 14.0764C3.3174 16.0335 5.13509 17.4568 7.28869 17.4958C5.6045 18.8156 3.48089 19.5999 1.17434 19.5999C0.776925 19.5999 0.385473 19.5759 6.10352e-05 19.5324C2.17916 20.9317 4.76618 21.7475 7.54666 21.7475C16.6034 21.7475 21.554 14.2459 21.554 7.74012L21.5375 7.10275C22.5048 6.41283 23.3417 5.546 24 4.55918Z" fill="#FEC901"/>
</g>
<defs>
<clipPath id="clip0">
<rect width="24" height="24" fill="white"/>
</clipPath>
</defs>
</svg>
